<svg width="17" height="16" viewBox="0 0 17 16" fill="none" xmlns="http://www.w3.org/2000/svg">
<path d="M2.7248 5.52279C2.97369 4.41665 3.8317 3.54588 4.93973 3.27492C6.45017 2.90556 8.04552 2.90978 9.55596 3.27914C10.6501 3.5467 11.5194 4.39562 11.7947 5.4809L11.8114 5.54661C12.2199 7.15704 12.2199 8.84296 11.8114 10.4534L11.7947 10.5191C11.5194 11.6044 10.6501 12.4533 9.55595 12.7209C8.04552 13.0902 6.45017 13.0944 4.93973 12.7251C3.8317 12.4541 2.97369 11.5833 2.7248 10.4772L2.68371 10.2946C2.34371 8.78349 2.34371 7.21651 2.68371 5.70543L2.7248 5.52279Z" stroke="white"/>
<path d="M11.8709 10.2056L12.0022 10.2491C12.0364 10.2604 12.0697 10.274 12.1018 10.29L13.2244 10.8475C14.084 11.2744 15.0954 10.6536 15.0954 9.69903L15.0954 6.54009C15.0954 5.53152 13.9785 4.91665 13.1174 5.45119L12.127 6.06605C12.0781 6.09635 12.033 6.13205 11.9923 6.17247L11.9557 6.20883C12.1971 7.53182 12.1689 8.89107 11.8709 10.2056Z" stroke="white"/>
</svg>
