<svg width="33" height="33" viewBox="0 0 33 33" fill="none" xmlns="http://www.w3.org/2000/svg">
<path fill-rule="evenodd" clip-rule="evenodd" d="M11.3733 8.23752C12.123 6.17635 14.1343 4.7002 16.5 4.7002C18.8657 4.7002 20.877 6.17635 21.6267 8.23752C24.7324 9.00897 27.1813 11.369 28.0039 14.4181C28.6654 16.8695 28.6654 19.4467 28.0039 21.8981C27.1485 25.0684 24.535 27.4938 21.2531 28.1631L20.694 28.2771C17.9277 28.8412 15.0723 28.8412 12.306 28.2771L11.7469 28.1631C8.46501 27.4938 5.85147 25.0684 4.99607 21.8981C4.33464 19.4467 4.33464 16.8695 4.99607 14.4181C5.81875 11.369 8.26764 9.00897 11.3733 8.23752ZM16.5 14.2772C14.3085 14.2772 12.5319 16.0147 12.5319 18.1581C12.5319 20.3014 14.3085 22.039 16.5 22.039C18.6915 22.039 20.468 20.3014 20.468 18.1581C20.468 16.0147 18.6915 14.2772 16.5 14.2772ZM14.0679 18.1581C14.0679 16.8444 15.1568 15.7795 16.5 15.7795C17.8432 15.7795 18.932 16.8444 18.932 18.1581C18.932 19.4718 17.8432 20.5367 16.5 20.5367C15.1568 20.5367 14.0679 19.4718 14.0679 18.1581Z" fill="#0D0206"/>
</svg>
