<svg width="32" height="32" viewBox="0 0 32 32" fill="none" xmlns="http://www.w3.org/2000/svg">
<path fill-rule="evenodd" clip-rule="evenodd" d="M12.9316 1.89723C13.5121 0.734869 14.7016 0 15.9998 0C17.2994 0 18.4875 0.734869 19.0694 1.89723L31.6381 27.0346C32.1699 28.0969 32.1142 29.3608 31.488 30.373C30.8632 31.3838 29.7594 32 28.5699 32H3.43106C2.24154 32 1.13781 31.3838 0.512995 30.373C-0.113207 29.3608 -0.168986 28.0969 0.361446 27.0346L12.9316 1.89723ZM14.9775 2.91949L2.40886 28.0569C2.23157 28.4114 2.25016 28.8332 2.4589 29.1706C2.66621 29.5066 3.03507 29.7139 3.43109 29.7139H28.5699C28.9659 29.7139 29.3348 29.5066 29.5421 29.1706C29.7508 28.8332 29.7694 28.4114 29.5921 28.0569L17.0235 2.91949C16.829 2.53204 16.4344 2.28754 15.9998 2.28754C15.5666 2.28754 15.1706 2.53203 14.9775 2.91949ZM14.7431 9.18297C14.7431 8.55102 15.2549 8.03777 15.8854 8.03777C16.5174 8.03777 17.0292 8.55102 17.0292 9.18297V19.4755C17.0292 20.106 16.5174 20.6192 15.8854 20.6192C15.2549 20.6192 14.7431 20.106 14.7431 19.4755V9.18297ZM15.9426 22.9068C17.205 22.9068 18.2301 23.9319 18.2301 25.1957C18.2301 26.4582 17.205 27.4819 15.9426 27.4819C14.6816 27.4819 13.6565 26.4582 13.6565 25.1957C13.6565 23.9319 14.6816 22.9068 15.9426 22.9068Z" fill="#FF3B30"/>
</svg>
