<svg width="86" height="91" viewBox="0 0 86 91" fill="none" xmlns="http://www.w3.org/2000/svg">
<path d="M68.8113 90.7002H2.28953C1.21344 90.7002 0.333008 89.8198 0.333008 88.7437V2.65672C0.333008 1.58063 1.21344 0.700195 2.28953 0.700195H68.8113C69.8874 0.700195 70.7678 1.58063 70.7678 2.65672V88.7437C70.7678 89.8198 69.9069 90.7002 68.8113 90.7002ZM4.24605 86.7872H66.8547V4.61324H4.24605V86.7872Z" fill="#CFCECF"/>
<path d="M62.316 82.2872H8.80515C7.72907 82.2872 6.84863 81.4068 6.84863 80.3307V11.0698C6.84863 9.99372 7.72907 9.11328 8.80515 9.11328H62.3356C63.4117 9.11328 64.2921 9.99372 64.2921 11.0698V80.3307C64.2725 81.4263 63.4117 82.2872 62.316 82.2872ZM10.7617 78.3742H60.3791V13.0263H10.7617V78.3742Z" fill="#CFCECF"/>
<path d="M17.6286 64.0523C17.2372 64.0523 16.8459 63.9349 16.5133 63.7001C15.6525 63.0936 15.4177 61.9197 16.0046 61.0393C16.5525 60.2175 35.3546 38.2067 43.4155 28.7762C44.1199 27.9545 45.3525 27.8567 46.1742 28.561C46.9959 29.2654 47.0938 30.498 46.3894 31.3197C35.8829 43.6067 19.9764 62.2523 19.2133 63.2697C18.822 63.7784 18.2351 64.0523 17.6286 64.0523Z" fill="#CFCECF"/>
<path d="M26.5504 67.4175C26.1591 67.4175 25.7678 67.3001 25.4352 67.0653C24.5743 66.4588 24.3396 65.2849 24.9265 64.4044C25.3961 63.7001 39.8939 46.7371 48.483 36.6805C49.1874 35.8588 50.42 35.761 51.2417 36.4653C52.0635 37.1697 52.1613 38.4023 51.4569 39.224C42.4569 49.7501 28.8396 65.7153 28.1352 66.6349C27.7635 67.1436 27.1569 67.4175 26.5504 67.4175Z" fill="#CFCECF"/>
<path d="M68.811 87.6482C68.3414 87.6482 67.8915 87.4917 67.5393 87.1787C67.1088 86.8069 66.8545 86.2591 66.8545 85.6917V65.9308C66.8545 65.1091 67.3632 64.3852 68.1458 64.0917C68.9088 63.7982 69.7893 64.033 70.3175 64.6591L85.2067 82.2286C85.6567 82.7765 85.7936 83.52 85.5393 84.1852C85.2849 84.8504 84.698 85.32 83.9936 85.4373L69.1045 87.6287C69.0067 87.6482 68.9088 87.6482 68.811 87.6482ZM70.7675 71.2721V83.4417L79.9241 82.0917L70.7675 71.2721Z" fill="#CFCECF"/>
</svg>
